<svg id="_ÎÓÈ_1" data-name="—ÎÓÈ_1" xmlns="http://www.w3.org/2000/svg" viewBox="0 0 600 420"><defs><style>.cls-1{fill:#bab076;}</style></defs><title>business</title><path class="cls-1" d="M894,750H660a24,24,0,0,1-24,24H564a24,24,0,0,1-24-24H306a6,6,0,0,0-6,6h0a54,54,0,0,0,54,54H846a54,54,0,0,0,54-54h0A6,6,0,0,0,894,750Z" transform="translate(-300 -390)"/><path class="cls-1" d="M834,390H366a12,12,0,0,0-12,12V714a12,12,0,0,0,12,12H834a12,12,0,0,0,12-12V402A12,12,0,0,0,834,390Zm-234,9a9,9,0,1,1-9,9A9,9,0,0,1,600,399ZM810,690H390V426H810V690Z" transform="translate(-300 -390)"/></svg>