<svg id="_ÎÓÈ_1" data-name="—ÎÓÈ_1" xmlns="http://www.w3.org/2000/svg" viewBox="0 0 3241.4 1715.46"><defs><style>.cls-1{fill:#bab076;}</style></defs><title>clubhouse</title><g id="_Group_" data-name="&lt;Group&gt;"><path class="cls-1" d="M3955.7,2309.57V2135.32c0-157.75-128.33-286.08-286.08-286.08H1330.36c-157.75,0-286.08,128.33-286.08,286.08v174.25c-94.25,21-165,105.11-165,205.58v720.69c0,75.76,52.45,139,122.81,156.72v57.94a114.33,114.33,0,0,0,114.2,114.2h88.07a114.33,114.33,0,0,0,114.2-114.2v-49.44l2313.16-2.64v52.08a114.33,114.33,0,0,0,114.2,114.2H3834a114.33,114.33,0,0,0,114.2-114.2v-44.74h10.41c89.38,0,162.1-72.72,162.1-162.1V2515.16C4120.7,2414.68,4050,2330.54,3955.7,2309.57ZM2437,1940.72v957.76l-1136.2,1.3V2515.16c0-100.48-70.74-184.62-165-205.58V2135.32c0-107.31,87.29-194.6,194.6-194.6H2437Zm1232.65,0c107.31,0,194.6,87.29,194.6,194.6v174.25c-94.26,21-165,105.11-165,205.58V2897L2542,2898.36V1940.72H3669.62Zm359.6,1302.95a70.7,70.7,0,0,1-70.62,70.62H3790.7V2515.16a119.26,119.26,0,0,1,238.52,0v728.51ZM1209.29,2515.16v791.3h-167.9a70.68,70.68,0,0,1-70.6-70.6V2515.16A119.25,119.25,0,0,1,1209.29,2515.16Zm91.48,476.11,2398.46-2.75v318.35l-2398.46,2.73V2991.26Zm-73.67,459.24a22.75,22.75,0,0,1-22.72,22.72H1116.3a22.75,22.75,0,0,1-22.72-22.72v-49.19l133.51-.15v49.34Zm2629.62,0a22.75,22.75,0,0,1-22.72,22.72h-88.07a22.75,22.75,0,0,1-22.72-22.72v-44.74h133.51v44.74Z" transform="translate(-879.3 -1849.24)"/></g></svg>