<svg id="Layer_1" data-name="Layer 1" xmlns="http://www.w3.org/2000/svg" viewBox="0 0 580 335.64"><defs><style>.cls-1{fill:#bab076;}</style></defs><title>lake</title><path class="cls-1" d="M722.35,387.77L790,332.18v43.89l-67.65,55.6c-8.32,6.84-21.81,6.84-30.14,0l-52.56-43.21c-8.32-6.84-21.81-6.84-30.14,0l-52.57,43.21c-8.32,6.84-21.82,6.84-30.14,0l-52.56-43.21c-8.32-6.84-21.82-6.84-30.14,0l-52.56,43.21c-8.32,6.84-21.82,6.84-30.15,0l-52.55-43.21c-8.32-6.84-21.82-6.84-30.14,0l-67.63,55.6-0.54-.43c-0.29-.25-0.52-9.18-0.52-19.95V399.3l0.52,0.44c0.3,0.24,7.28-5.12,15.61-12l52.56-43.21c8.32-6.84,21.82-6.84,30.14,0l52.55,43.21c8.33,6.85,21.83,6.85,30.15,0l52.56-43.21c8.32-6.84,21.82-6.84,30.14,0l52.56,43.21c8.32,6.85,21.82,6.85,30.14,0l52.57-43.21c8.33-6.84,21.82-6.84,30.14,0l52.56,43.21C700.54,394.62,714,394.62,722.35,387.77ZM692.21,499.66l-52.56-43.21c-8.32-6.85-21.81-6.85-30.14,0l-52.57,43.21c-8.32,6.83-21.82,6.83-30.14,0l-52.56-43.21c-8.32-6.85-21.82-6.85-30.14,0l-52.56,43.21c-8.32,6.83-21.82,6.83-30.15,0l-52.55-43.21c-8.32-6.85-21.82-6.85-30.14,0L211.06,512l-0.54-.43c-0.29-.25-0.52,8.3-0.52,19.08v4.87c0,10.77.23,19.71,0.52,19.95l0.54,0.44,67.63-55.61c8.32-6.84,21.82-6.84,30.14,0l52.55,43.21c8.33,6.85,21.83,6.85,30.15,0l52.56-43.21c8.32-6.84,21.82-6.84,30.14,0l52.56,43.21c8.32,6.85,21.82,6.85,30.14,0l52.57-43.21c8.33-6.84,21.82-6.84,30.14,0l52.56,43.21c8.33,6.85,21.82,6.85,30.14,0L790,488v-43.9l-67.65,55.61C714,506.5,700.54,506.5,692.21,499.66Zm0,111.87-52.56-43.21c-8.32-6.85-21.81-6.85-30.14,0l-52.57,43.21c-8.32,6.85-21.82,6.85-30.14,0l-52.56-43.21c-8.32-6.85-21.82-6.85-30.14,0l-52.56,43.21c-8.32,6.85-21.82,6.85-30.15,0l-52.55-43.21c-8.32-6.85-21.82-6.85-30.14,0l-67.63,55.6-0.54-.43c-0.29-.25-0.52,8.29-0.52,19.08v4.87c0,10.77.23,19.71,0.52,19.95l0.54,0.44,67.63-55.6c8.32-6.84,21.82-6.84,30.14,0l52.55,43.21c8.33,6.84,21.83,6.84,30.15,0l52.56-43.21c8.32-6.84,21.82-6.84,30.14,0l52.56,43.21c8.32,6.84,21.82,6.84,30.14,0l52.57-43.21c8.33-6.84,21.82-6.84,30.14,0l52.56,43.21c8.33,6.84,21.82,6.84,30.14,0L790,599.84V555.94l-67.65,55.59C714,618.38,700.54,618.38,692.21,611.53Z" transform="translate(-210 -332.18)"/></svg>