<svg id="Layer_1" data-name="Layer 1" xmlns="http://www.w3.org/2000/svg" viewBox="0 0 444.98 580.06"><defs><style>.cls-1{fill:none;}.cls-2{fill:#bab076;}.cls-3{fill:#fff;}</style></defs><title>parking</title><path class="cls-1" d="M413.07,258.94H377.71v76.64h35.36a30.55,30.55,0,0,0,30.51-30.51V289.45A30.55,30.55,0,0,0,413.07,258.94Z" transform="translate(-118.23 -170)"/><path class="cls-1" d="M400,194.84c-76.3,0-138.37,62.07-138.37,138.37S323.7,471.58,400,471.58s138.37-62.07,138.37-138.37S476.3,194.84,400,194.84Zm68.42,110.22a55.35,55.35,0,0,1-55.35,55.35H377.71v71.91H352.87V234.1h60.2a55.35,55.35,0,0,1,55.35,55.35v15.61Z" transform="translate(-118.23 -170)"/><path class="cls-2" d="M413.07,234.1h-60.2V432.32h24.84V360.41h35.36a55.35,55.35,0,0,0,55.35-55.35V289.45A55.35,55.35,0,0,0,413.07,234.1Zm30.51,71a30.55,30.55,0,0,1-30.51,30.51H377.71V258.94h35.36a30.55,30.55,0,0,1,30.51,30.51v15.61Z" transform="translate(-118.23 -170)"/><path class="cls-2" d="M400,170A163.21,163.21,0,1,0,563.21,333.21,163.21,163.21,0,0,0,400,170Zm0,301.58c-76.3,0-138.37-62.07-138.37-138.37S323.7,194.84,400,194.84s138.37,62.07,138.37,138.37S476.3,471.58,400,471.58Z" transform="translate(-118.23 -170)"/><path class="cls-3" d="M182.39,654.78H160.53v72h9V700.66h12.84a20.1,20.1,0,0,0,20.1-20.1v-5.67A20.1,20.1,0,0,0,182.39,654.78Zm11.08,25.77a11.1,11.1,0,0,1-11.08,11.08H169.55V663.8h12.84a11.1,11.1,0,0,1,11.08,11.08v5.67Z" transform="translate(-118.23 -170)"/><path class="cls-3" d="M177.51,631.5a59.28,59.28,0,1,0,59.28,59.28A59.28,59.28,0,0,0,177.51,631.5Zm0,109.54a50.26,50.26,0,1,1,50.26-50.26A50.32,50.32,0,0,1,177.51,741Z" transform="translate(-118.23 -170)"/></svg>