<svg id="_ÎÓÈ_1" data-name="—ÎÓÈ_1" xmlns="http://www.w3.org/2000/svg" viewBox="0 0 578.27 435.33"><defs><style>.cls-1{fill:#bab076;}</style></defs><title>pet</title><path class="cls-1" d="M856,592.74A14.44,14.44,0,0,0,844.54,580c-31.81-6.77-56.7-40.18-59.88-46-0.47-.95-50.27-94.16-143.49-76.42-34.31,6.56-65.62,8.69-95.75,6.56a7.86,7.86,0,0,0-.79,0h0c-16,.05-29.81-1.84-41.16-5.74a6.29,6.29,0,0,0-.95-0.26c-13-3-36.5-34.23-57.06-76a53.28,53.28,0,0,0-21.57-23.15c-14.27-8-31-11.14-48.45-9-22.46,2.71-39.47,11-49.21,24A48.59,48.59,0,0,1,294.37,393a19.3,19.3,0,0,0-16.46,17.93c-2.53,45.71,36.23,50.22,57,52.61,5.48,0.63,13,1.5,14.83,2.74,5.66,3.79,8.08,25.62,6.72,42.87,0,0.29,0,.61,0,0.89,1.32,77.15,56.72,120.84,67.23,128.45,14.17,23.15,4.27,76.5-1.84,99.46l-23.22,14.3a8.36,8.36,0,0,0-1,.71c-9,7.29-12,14.4-9,21.17,1.45,3.24,4.64,10.51,29.47,10.51a226.75,226.75,0,0,0,32.57-2.82,7.75,7.75,0,0,0,1.74-.42c22.51-7.93,35.81-40.76,40.66-100.41,0.63-7.82,1.08-15.56,1.37-23h0.24c1.87,0,46.32-1.06,77.52-29.36,10.06-9.14,25.78-16,41.39-20.91,9.66,15.48,36.18,55.27,61.62,70.68a16.44,16.44,0,0,1,7.66,12.75c1.9,23.44-1.71,40.16-9.4,43.66a146.12,146.12,0,0,1-15.62,6c-12.56,4.24-20.14,8.06-19.44,25.67A9.18,9.18,0,0,0,646,775.2c9.9,1.79,23.83,3.79,36.28,3.79,10.88,0,20.62-1.56,25.55-6.08,7-6.5,18.8-35.47,25.17-52.19s10.19-28.12,12.35-35.94c13.53,8.19,24.91,14.27,30.81,17.3l4.24,26.8a19.14,19.14,0,0,1-6.48,17.35,48,48,0,0,0-7,7.74c-4.66,6.5-4.79,13.74-.34,19.35,4.74,6,13.67,8.56,23.36,8.56A62,62,0,0,0,813,777.33c9.77-4,21.75-16.77,13.19-80.68a49.67,49.67,0,0,0-10.59-24.52c-8.51-10.61-20.72-34.07-29.31-51.56,19.25,2.08,42.27-5.11,61-13.14A14.38,14.38,0,0,0,856,592.74ZM695.44,759.19c-3.79,1.92-18,1.71-33.62-.24l1.9-.63a169,169,0,0,0,17.4-6.74c15.85-7.24,22.81-28.65,20.09-61.91a34.76,34.76,0,0,0-16.48-27c-19.83-12-41.92-43.58-52.59-60.06,10.11-2.42,19.07-4.06,25-5A120,120,0,0,0,663,611.09c9.8,19.57,32,40.87,66.1,63.38C725.27,692.33,702.08,751.42,695.44,759.19ZM774.17,596.4a9.21,9.21,0,0,0-14.9,10.32c1.06,2.34,26.15,57.24,42,76.94a31.6,31.6,0,0,1,6.66,15.43c6.08,45.35.45,59.75-2,61.22-9.06,3.74-18,3.53-22.49,2.43a26.85,26.85,0,0,1,2.58-2.63A37.5,37.5,0,0,0,798.58,726l-4.95-31.44a9.2,9.2,0,0,0-5.06-6.84,500.55,500.55,0,0,1-44.45-25.41l-0.26-.18-0.24-.16c-33.36-21.49-55.56-41.92-64.17-59.14a90.25,90.25,0,0,1-6.77-17.38c-0.05-.16-0.08-0.32-0.13-0.48s-0.08-.34-0.13-0.5c-5.32-21.46,4.79-28.89,5.24-29.18l-0.21.11-9.79-15.62c-0.82.53-18,11.72-14.83,39.76a327.28,327.28,0,0,0-37.5,8.4c-19.88,5.71-41.6,14.38-55.53,27-24.25,22-60,24.36-64.88,24.57,0.29-22.83-.61-39.45-0.66-40.5a9.22,9.22,0,0,0-18.41,1C479.28,662,472.56,753,447,763.69c-13.22,1.89-26.94,2.66-35.44,2.21l23-14.19a9.23,9.23,0,0,0,4-5.29c2.45-8.59,23.44-84.76-.58-119.71a9.12,9.12,0,0,0-2.48-2.45c-0.58-.39-59.19-40.5-60.64-114.15,0.66-8.85,2.53-47.56-14.9-59.2-5.56-3.71-13.61-4.64-22.93-5.71-25.57-3-42.24-6.87-40.76-33.28a0.87,0.87,0,0,1,.74-0.74A66.79,66.79,0,0,0,341,384.95c8.4-11.22,24.6-15.3,36.68-16.75,13.48-1.63,26.39.74,37.21,6.82a34.73,34.73,0,0,1,14.06,15.19c11.59,23.57,41.45,78.89,69,85.77,13.22,4.45,29,6.66,46.74,6.58h0.13c31.52,2.19,64.2-.05,99.85-6.85,79.63-15.17,123.16,65.75,123.55,66.57,2.68,5.35,26.62,39.55,61.27,52.43C802.82,604.48,783,605.2,774.17,596.4Z" transform="translate(-277.8 -349.26)"/><path class="cls-1" d="M418,484.1c-0.65,0-1.3,0-2-.1-25.62-2.53-40.77-58.13-46.1-81.92a9.22,9.22,0,0,1,18-4c7.62,34,22.16,66.84,29.92,67.61,0.85,0,5.67-2.45,11.91-16.56a9.22,9.22,0,1,1,16.85,7.46C443.48,463.5,434.36,484.1,418,484.1Z" transform="translate(-277.8 -349.26)"/></svg>