<svg id="Icon" xmlns="http://www.w3.org/2000/svg" viewBox="0 0 544.94 547.23"><defs><style>.cls-1{fill:#bab076;}</style></defs><title>playground</title><path class="cls-1" d="M448.13,381.13v-0.25a49,49,0,0,0-5.38-19.59c-4.87-9.32-15-20.42-35.38-20.42-31.14,0-40.68,26.07-41.38,39.85v60.41h82.15v-60Zm-16,44H382V381.36c0.16-2.35,2.29-24.49,25.39-24.49,22.82,0,24.62,21.57,24.76,24.42v43.84Zm336,275.37c-45.65,0-83.62-35.52-127-118.76-23.11-44.38-48.9-78.53-76.66-101.49-23-19-47.37-30-70.92-32.07V315.55h45.25l-131.3-91.33L275.3,315.6h45.24V498l-13.77,50.93H283.3v16h19.14l-11.73,43.39H267v16h19.36L274.93,666.6H250.09v16h20.52L260.12,721.4H235.49v16h20.3l-9.21,34,59.5-.38L352.53,590.5a43.67,43.67,0,0,1,86.07,10.4L438.69,771l54.9,0.4-0.36-261.08c34.17,4.38,63.64,37.78,105.36,117.91,23,44.24,48.15,77.64,74.63,99.26l1.08,0.87h-0.51v34.84h16V739.4c19.46,12.11,39.6,18.24,60.09,18.24h5.2l25.35-57.14h-12.3ZM454.68,755.13L454.61,600.9A59.67,59.67,0,0,0,337,586.61L293.66,755.15l-26.14.17,66.38-245.5H477.23l0.34,245.48Zm22.9-304-0.3,42.71H336.54V315.59l141,0V451.11Zm-151-151.52,80.89-55.91,80.33,55.87Zm418.13,441.9c-20.84-1.25-41.47-10.11-61.4-26.38-24.79-20.24-48.53-52-70.56-94.26-45.28-87-78.54-122.63-119.51-126.65l0.2-28.25h0.11v-1.7c19.87,2.08,40.7,11.77,60.72,28.33,26.1,21.59,50.55,54.07,72.67,96.55,42.89,82.38,82.14,121.18,129.16,126.69Z" transform="translate(-235.49 -224.21)"/></svg>