<?xml version="1.0" encoding="UTF-8" standalone="no"?>
<svg width="75px" height="96px" viewBox="0 0 75 96" version="1.1" xmlns="http://www.w3.org/2000/svg" xmlns:xlink="http://www.w3.org/1999/xlink">
    <!-- Generator: Sketch 39.1 (31720) - http://www.bohemiancoding.com/sketch -->
    <title>Group</title>
    <desc>Created with Sketch.</desc>
    <defs></defs>
    <g id="Page-1" stroke="none" stroke-width="1" fill="none" fill-rule="evenodd">
        <g id="Group" transform="translate(-1.000000, 0.000000)" fill="#FFFFFF">
            <path d="M26.766,17.473 C31.352,17.473 35.047,13.739 35.047,9.192 C35.047,4.606 31.352,0.919 26.766,0.919 C22.196,0.919 18.485,4.607 18.485,9.192 C18.484001,13.738 22.195,17.473 26.766,17.473 L26.766,17.473 Z" id="svg_4"></path>
            <path d="M67.023,79.066 C68.343,81.214 71.375,82.097 73.664,80.722 C75.937,79.363 76.625,76.503 75.328,74.113 L61.219,49.746 C60.336,48.277 58.797,47.449 57.211,47.402 L36.508,47.402 L36.313,41.152 L51.352,41.152 C53.407,41.027 55.086,39.464 55.086,37.363 C55.086,35.293 53.453,33.683 51.352,33.605 L35.875,33.605 L35.336,26.503 C35.047,22.159 31.305,18.737 26.906,18.98 C22.492,19.23 19.148,23.035 19.367,27.433 L20.805,52.55 C21.172,56.948 24.86,60.097 29.227,60.073 L56.063,60.073 L67.023,79.066 L67.023,79.066 Z" id="svg_5"></path>
            <path d="M32.086,88.51 C18.508,88.51 7.5,77.526 7.5,63.924 C7.5,56.479 10.867,49.838 16.117,45.322 L15.679,37.634 C6.89,43.126 0.984,52.798 0.984,63.923 C0.984,81.087 14.898,95.032 32.086,95.032 C44.734,95.032 55.555,87.415 60.414,76.571 L56.039,69.001 C53.695,80.111 43.906,88.51 32.086,88.51 L32.086,88.51 Z" id="svg_6"></path>
        </g>
    </g>
</svg>